<svg fill="none" height="512" viewBox="0 0 718 512" width="718" xmlns="http://www.w3.org/2000/svg"><path clip-rule="evenodd" d="m3.178 10.2348c1.922-3.07363 4.59625-5.60704 7.7702-7.36095 3.174-1.75392 6.743-2.670453 10.3699-2.663064h225.1339c4.023.0098 7.961 1.156294 11.359 3.307114 3.399 2.15083 6.119 5.21828 7.848 8.8482l93.466 194.4859 93.243-194.6967c1.73-3.63349 4.454-6.70334 7.857-8.85442s7.346-3.29549639 11.373-3.30088h225.11c3.599.00802501 7.137.925426 10.286 2.66687 3.149 1.74145 5.805 4.25038 7.723 7.29342 1.918 3.04301 3.035 6.52131 3.246 10.11141.212 3.59-.489 7.1752-2.036 10.4221l-225.134 469.3512c-1.73 3.629-4.451 6.695-7.849 8.846s-7.336 3.298-11.358 3.309h-225.134c-4.025-.008-7.965-1.153-11.366-3.304s-6.123-5.22-7.852-8.851l-225.11066-469.1405c-1.558894-3.2258-2.279435-6.7922-2.0951079-10.3697.1843269-3.5776 1.2675779-7.0511 3.1497679-10.1zm468.396 60.3552 78.959 164.191h-157.917l78.513-164.191h.434zm-416.1202-27.7301 78.5372 164.2021 78.958-164.2021h-157.9171.4453zm190.9982 27.7301 78.947 164.191h-157.695l78.525-164.191zm259.27-27.7301 78.525 164.2021 78.958-164.2021h-157.917zm-34.148 398.7731-78.525-164.203h157.261l-78.947 164.203zm-33.714 27.718-78.958-164.179-78.525 164.179zm-191.197-27.718-78.959-164.203h157.496l-78.971 164.203z" fill="#be185d" fill-rule="evenodd"/></svg>